<svg width="670" height="670" viewBox="0 0 670 670" fill="none" xmlns="http://www.w3.org/2000/svg">
<mask id="mask0_103_473" style="mask-type:alpha" maskUnits="userSpaceOnUse" x="27" y="0" width="643" height="649">
<path d="M27 324.5C27 503.714 170.943 649 348.5 649C526.06 649 670 503.714 670 324.5C670 145.283 526.06 0 348.5 0C170.943 0 27 145.283 27 324.5Z" fill="#FD463D"/>
</mask>
<g mask="url(#mask0_103_473)">
<g filter="url(#filter0_d_103_473)">
<ellipse cx="348" cy="323" rx="322" ry="321" fill="url(#paint0_linear_103_473)"/>
</g>
<path fill-rule="evenodd" clip-rule="evenodd" d="M442.059 140.353C442.059 140.353 378.387 144.828 344.463 144.079C311.288 143.331 294.767 130.57 294.767 130.57C294.767 130.57 307.594 72.4875 364.861 72.4875C447.749 72.4875 442.059 140.353 442.059 140.353Z" fill="#FFB8C0"/>
<path fill-rule="evenodd" clip-rule="evenodd" d="M269.993 130.6C271.541 150.653 252.94 304.622 252.94 304.622C252.94 304.622 312.802 306.303 347.275 303.491L353.415 262.865L424.59 244.178V304.697L508.144 304.902C481.79 202.056 520.556 47.0836 412.361 63.7278C412.361 63.7278 374.411 45.2667 346.759 51.1614C267.481 68.0619 269.993 130.6 269.993 130.6Z" fill="#382149"/>
<path fill-rule="evenodd" clip-rule="evenodd" d="M424.389 190.676L424.589 244.188C401.563 251.976 377.921 258.691 352.948 263.048C352.948 263.048 288.926 276.332 287.429 218.692C285.881 159.404 294.766 130.6 294.766 130.6C307.427 133.827 324.88 123.186 339.821 124.658C365.143 127.154 389.817 139.679 419.448 133.5C465.601 123.875 467.165 189.491 424.389 190.676Z" fill="#FFB8C0"/>
<path fill-rule="evenodd" clip-rule="evenodd" d="M412.982 130.599L417.873 177.567C408.673 177.734 401.169 167.751 398.374 153.576C362.104 156.787 343.254 147.187 338.512 124.526L412.982 130.599Z" fill="#382149"/>
<path fill-rule="evenodd" clip-rule="evenodd" d="M339.826 118.387C339.826 118.387 337.746 143.76 316.15 146.488C294.555 149.216 283.973 148.551 283.973 148.551L292.343 119.801L339.826 118.387Z" fill="#382149"/>
<path d="M437.324 149.176C437.616 154.231 435.66 162.486 429.005 163.319" stroke="#FF6D7E" stroke-width="10.6781" stroke-linecap="round"/>
<path d="M427.224 146.696C427.224 146.696 444.811 143.353 443.147 164.15" stroke="#FF6D7E" stroke-width="10.6781" stroke-miterlimit="1.5" stroke-linecap="round" stroke-linejoin="round"/>
<path fill-rule="evenodd" clip-rule="evenodd" d="M94.8598 423.638C142.51 364.252 256.494 301.081 372.315 297.578C512.488 293.337 648.355 363.677 686.655 438.764C712.877 490.148 726.658 574.015 733.661 658.288C740.168 736.845 740.785 815.757 740.062 869.119C739.912 880.099 738.074 923.701 738.074 923.701H49.2244C49.2244 923.701 47.1771 878.748 46.906 870.488C42.9281 754.476 39.9599 492.06 94.8598 423.638Z" fill="#FFB8C0"/>
<path fill-rule="evenodd" clip-rule="evenodd" d="M96.622 422.132C144.272 362.746 256.494 301.081 372.314 297.577C429.35 295.851 489.143 306.541 542.444 325.44C620.129 353.001 667.166 395.806 688.733 445.38C729.489 539.06 735.092 656.325 735.092 656.325L596.815 655.11V923.701H193.703L192.679 657.648L47.2658 656.75C47.2658 656.75 47.4762 474.243 96.622 422.132Z" fill="white"/>
<path fill-rule="evenodd" clip-rule="evenodd" d="M157.421 657.512L193.68 657.629L193.698 612.237C186.205 598.868 175.3 584.742 170.042 566.471C170.042 566.471 168.952 571.224 168.438 573.66C158.047 623.016 157.421 642.91 157.421 657.512Z" fill="white"/>
<path d="M199.401 426.163C199.401 426.163 164.736 466.884 164.736 522.069C164.736 577.25 190.431 612.457 190.431 612.457" stroke="white" stroke-width="14.7985" stroke-miterlimit="1.5" stroke-linecap="round" stroke-linejoin="round"/>
<path fill-rule="evenodd" clip-rule="evenodd" d="M594.342 698.394C594.342 698.394 525.672 640.414 515.317 605.038C504.947 569.654 498.485 538.738 498.485 538.738H240.749C210.928 578.222 203.51 642.223 193.792 699.656V923.701H596.225L594.342 698.394Z" fill="#000E5D"/>
<path fill-rule="evenodd" clip-rule="evenodd" d="M565.759 673.054L596.807 697.73V681.459C595.21 625.919 589.182 562.165 569.125 520.62C567.231 566.625 565.759 673.054 565.759 673.054Z" fill="white"/>
<path fill-rule="evenodd" clip-rule="evenodd" d="M465.953 628.896H267.441V770C267.441 770 268.079 823.923 368.931 823.923C469.782 823.923 468.186 757.024 468.186 757.024L465.953 628.896Z" fill="#001175"/>
<path fill-rule="evenodd" clip-rule="evenodd" d="M515.87 317.357C515.87 317.357 475.233 459.442 464.304 497.641C463.618 500.039 463.985 502.615 465.293 504.727C466.617 506.84 468.755 508.308 471.213 508.757C478.664 510.103 488.875 511.968 495.831 513.23C500.266 514.029 504.606 511.351 505.867 507.027C516.046 472.27 557.592 330.384 557.592 330.384C544.238 325.027 530.533 320.285 515.87 317.357Z" fill="#000E5D"/>
<path d="M480.498 510.136L469.793 557.402" stroke="#AEAEAE" stroke-width="14.8137" stroke-miterlimit="1.5" stroke-linejoin="round"/>
<path d="M261.76 505.48L268.254 557.402" stroke="#AEAEAE" stroke-width="14.8137" stroke-miterlimit="1.5" stroke-linejoin="round"/>
<path fill-rule="evenodd" clip-rule="evenodd" d="M261.28 317.357C261.28 317.357 276.517 457.761 280.458 494.033C280.969 498.805 277.714 503.166 272.991 504.012C266.162 505.26 256.494 507.027 249.282 508.322C246.746 508.789 244.129 508.158 242.087 506.593C240.028 505.013 238.736 502.647 238.529 500.086C235.353 462.237 224.313 330.384 224.313 330.384L261.28 317.357Z" fill="#000E5D"/>
<path d="M470.779 568.163C466.055 568.163 462.227 564.171 462.227 559.244C462.227 554.322 466.055 550.33 470.779 550.33C475.502 550.33 479.33 554.322 479.33 559.244C479.33 564.171 475.502 568.163 470.779 568.163Z" fill="white"/>
<path d="M268.226 568.163C263.503 568.163 259.674 564.171 259.674 559.244C259.674 554.322 263.503 550.33 268.226 550.33C272.949 550.33 276.778 554.322 276.778 559.244C276.778 564.171 272.949 568.163 268.226 568.163Z" fill="white"/>
<path fill-rule="evenodd" clip-rule="evenodd" d="M353.649 262.814L423.586 243.953L423.847 314.547C423.847 314.547 422.677 330.934 385.483 330.369C344.342 329.737 346.762 314.014 346.762 314.014L353.649 262.814Z" fill="#FFB8C0"/>
<path fill-rule="evenodd" clip-rule="evenodd" d="M353.666 262.816L388.164 254.41C385.143 274.76 369.112 304.796 346.601 314.364L353.666 262.816Z" fill="#FF9CA0"/>
<path d="M350.205 225.791C350.205 225.791 344.128 231.3 334.439 229.572C324.746 227.86 321.896 222.242 321.896 222.242" stroke="#310234" stroke-width="8.8984" stroke-miterlimit="1.5" stroke-linecap="round" stroke-linejoin="round"/>
<path d="M321.775 180.903C318.691 180.903 316.192 177.436 316.192 173.16C316.192 168.884 318.691 165.417 321.775 165.417C324.859 165.417 327.359 168.884 327.359 173.16C327.359 177.436 324.859 180.903 321.775 180.903Z" fill="#310234"/>
<path d="M365.082 187.04C361.998 187.04 359.498 183.574 359.498 179.297C359.498 175.021 361.998 171.555 365.082 171.555C368.165 171.555 370.665 175.021 370.665 179.297C370.665 183.574 368.165 187.04 365.082 187.04Z" fill="#310234"/>
<path fill-rule="evenodd" clip-rule="evenodd" d="M341.26 176.513L326.751 209.838L340.81 211.651L341.26 176.513Z" fill="#FF5F71"/>
</g>
<defs>
<filter id="filter0_d_103_473" x="22" y="2" width="652" height="650" filterUnits="userSpaceOnUse" color-interpolation-filters="sRGB">
<feFlood flood-opacity="0" result="BackgroundImageFix"/>
<feColorMatrix in="SourceAlpha" type="matrix" values="0 0 0 0 0 0 0 0 0 0 0 0 0 0 0 0 0 0 127 0" result="hardAlpha"/>
<feOffset dy="4"/>
<feGaussianBlur stdDeviation="2"/>
<feComposite in2="hardAlpha" operator="out"/>
<feColorMatrix type="matrix" values="0 0 0 0 0 0 0 0 0 0 0 0 0 0 0 0 0 0 0.25 0"/>
<feBlend mode="normal" in2="BackgroundImageFix" result="effect1_dropShadow_103_473"/>
<feBlend mode="normal" in="SourceGraphic" in2="effect1_dropShadow_103_473" result="shape"/>
</filter>
<linearGradient id="paint0_linear_103_473" x1="180.5" y1="53" x2="491.5" y2="615.5" gradientUnits="userSpaceOnUse">
<stop stop-color="#C961DE"/>
<stop offset="0.828125" stop-color="#2954A3"/>
</linearGradient>
</defs>
</svg>
